HIERARCHY
ROOT hip
{
	OFFSET 0.000000 0.000000 0.000000 
	CHANNELS 6 Xposition Yposition Zposition Xrotation Zrotation Yrotation
	JOINT abdomen
	{
		OFFSET 0.000000 3.402643 0.000000 
		CHANNELS 3 Xrotation Zrotation Yrotation
		JOINT chest
		{
			OFFSET 0.000000 8.438565 -0.680529 
			CHANNELS 3 Xrotation Zrotation Yrotation
			JOINT neck
			{
				OFFSET 0.000000 10.207942 -0.272212 
				CHANNELS 3 Xrotation Zrotation Yrotation
				JOINT head
				{
					OFFSET 0.000000 3.130431 0.000000 
					CHANNELS 3 Xrotation Zrotation Yrotation
					End Site
					{
						OFFSET 0.000000 3.130435 0.000000 
					}
				}
			}
			JOINT lCollar
			{
				OFFSET 3.470700 6.669187 -0.816635 
				CHANNELS 3 Yrotation Zrotation Xrotation
				JOINT lShldr
				{
					OFFSET 3.198488 0.000000 0.000000 
					CHANNELS 3 Zrotation Yrotation Xrotation
					JOINT lForeArm
					{
						OFFSET 10.139888 0.000000 0.000000 
						CHANNELS 3 Yrotation Zrotation Xrotation
						JOINT lHand
						{
							OFFSET 8.370511 0.000000 0.000000 
							CHANNELS 3 Zrotation Yrotation Xrotation
							End Site
							{
								OFFSET 4.083176 0.000000 0.000000 
							}
						}
					}
				}
			}
			JOINT rCollar
			{
				OFFSET -3.470700 6.669187 -0.816635 
				CHANNELS 3 Yrotation Zrotation Xrotation
				JOINT rShldr
				{
					OFFSET -3.198488 0.000000 0.000000 
					CHANNELS 3 Zrotation Yrotation Xrotation
					JOINT rForeArm
					{
						OFFSET -10.139888 0.000000 0.000000 
						CHANNELS 3 Yrotation Zrotation Xrotation
						JOINT rHand
						{
							OFFSET -8.370511 0.000000 0.000000 
							CHANNELS 3 Zrotation Yrotation Xrotation
							End Site
							{
								OFFSET -4.083176 0.000000 0.000000 
							}
						}
					}
				}
			}
		}
	}
	JOINT lThigh
	{
		OFFSET 5.308129 -1.633274 1.361059 
		CHANNELS 3 Xrotation Zrotation Yrotation
		JOINT lShin
		{
			OFFSET -2.041588 -20.007561 0.000000 
			CHANNELS 3 Xrotation Zrotation Yrotation
			JOINT lFoot
			{
				OFFSET 0.000000 -19.190928 -1.224953 
				CHANNELS 3 Xrotation Yrotation Zrotation
				End Site
				{
					OFFSET 0.000000 -2.449906 4.627600 
				}
			}
		}
	}
	JOINT rThigh
	{
		OFFSET -5.308129 -1.633274 1.361059 
		CHANNELS 3 Xrotation Zrotation Yrotation
		JOINT rShin
		{
			OFFSET 2.041588 -20.007561 0.000000 
			CHANNELS 3 Xrotation Zrotation Yrotation
			JOINT rFoot
			{
				OFFSET 0.000000 -19.190928 -1.224953 
				CHANNELS 3 Xrotation Yrotation Zrotation
				End Site
				{
					OFFSET 0.000000 -2.449906 4.627600 
				}
			}
		}
	}
}
MOTION
Frames: 8
Frame Time: 0.016667
0.054169 43.814304 0.371622 5.760510 3.118970 -5.456940 -20.515600 1.226950 -2.012490 19.653400 5.917240 -0.795754 11.559629 -15.060709 -4.309123 14.767200 7.117580 -0.289602 2.000000 -2.000000 0.000000 -88.763901 0.497827 -163.496994 100.167000 -0.188993 0.153989 0.045532 -0.016951 -142.985992 -2.000000 2.000000 0.000000 -95.155701 -172.770996 4.903460 -106.592003 0.178596 0.111909 -0.054483 0.004544 -135.057007 -12.627603 -3.122963 -2.691826 31.430117 2.593300 2.368336 -19.363434 8.100822 3.829949 -18.537992 -1.352287 7.558245 40.457500 -2.347005 -2.912791 -22.894049 2.031361 0.793689 
0.055211 43.813538 0.380553 5.770290 3.118910 -5.466170 -20.525299 1.217700 -2.009370 19.633801 5.917210 -0.797768 11.565972 -15.008538 -4.300610 14.738200 7.137520 -0.270097 2.000000 -2.000000 0.000000 -88.744400 0.536889 -163.496994 100.185997 -0.188944 0.153981 0.045534 -0.016978 -142.996002 -2.000000 2.000000 0.000000 -95.155602 -172.712997 4.932610 -106.640999 0.178493 0.111879 -0.054478 0.004708 -135.115005 -12.626677 -3.124294 -2.682601 31.430040 2.594319 2.368609 -19.376495 8.118933 3.842768 -18.541046 -1.338608 7.585760 40.449333 -2.329496 -2.926474 -22.885269 2.028027 0.768722 
0.053920 43.813786 0.383527 5.799630 3.118750 -5.435280 -20.554399 1.219660 -2.031970 19.594400 5.956200 -0.802444 11.586403 -14.959065 -4.328672 14.719300 7.166800 -0.276894 2.000000 -2.000000 0.000000 -88.763901 0.566119 -163.526993 100.195999 -0.188920 0.153976 0.045532 -0.016951 -142.985992 -2.000000 2.000000 0.000000 -95.175201 -172.684006 4.942300 -106.661003 0.178451 0.111866 -0.054476 0.004762 -135.134995 -12.668464 -3.127701 -2.716751 31.451166 2.584035 2.384834 -19.364798 8.121179 3.841911 -18.513632 -1.350217 7.617930 40.401215 -2.321452 -2.934383 -22.897776 1.993899 0.758720 
0.052630 43.813919 0.386500 5.819250 3.128360 -5.413700 -20.593300 1.221500 -2.054870 19.564899 5.985440 -0.815751 11.600734 -14.925671 -4.355693 14.700100 7.186500 -0.275740 2.000000 -2.000000 0.000000 -88.783501 0.605137 -163.546005 100.195999 -0.188920 0.153976 0.045532 -0.016951 -142.985992 -2.000000 2.000000 0.000000 -95.194702 -172.654007 4.961760 -106.669998 0.178430 0.111860 -0.054474 0.004844 -135.164001 -12.697985 -3.134993 -2.732873 31.469496 2.590571 2.366812 -19.362173 8.154134 3.850327 -18.564775 -1.332693 7.632481 40.516525 -2.347524 -2.921333 -22.967607 1.976279 0.760426 
0.055030 43.815201 0.392697 5.838540 3.079680 -5.417590 -20.583700 1.239900 -2.061440 19.574699 5.985460 -0.814733 11.641777 -14.838460 -4.421961 14.681600 7.234980 -0.278990 2.000000 -2.000000 0.000000 -88.803001 0.575862 -163.535995 100.206001 -0.188895 0.153972 0.045549 -0.017114 -143.044998 -2.000000 2.000000 0.000000 -95.194702 -172.703003 4.932580 -106.651001 0.178472 0.111872 -0.054479 0.004680 -135.104996 -12.718436 -3.101949 -2.761703 31.499285 2.584913 2.364813 -19.382933 8.174699 3.875350 -18.537792 -1.283983 7.629087 40.399837 -2.334230 -2.919077 -22.879827 1.971214 0.755281 
0.057428 43.816490 0.398896 5.857830 3.030990 -5.421520 -20.584000 1.270750 -2.062590 19.594400 5.975730 -0.812534 11.683321 -14.774847 -4.501214 14.663200 7.283470 -0.282273 2.000000 -2.000000 0.000000 -88.822502 0.556354 -163.526993 100.206001 -0.188895 0.153972 0.045569 -0.017305 -143.113007 -2.000000 2.000000 0.000000 -95.194702 -172.742004 4.913150 -106.630997 0.178513 0.111885 -0.054483 0.004544 -135.057007 -12.751584 -3.053791 -2.770695 31.576962 2.594073 2.365938 -19.449409 8.200649 3.874805 -18.519083 -1.248162 7.616822 40.359974 -2.342190 -2.912960 -22.880302 1.965810 0.751863 
0.057942 43.814304 0.404705 5.877130 2.982320 -5.396180 -20.564199 1.249260 -2.064260 19.623899 5.917190 -0.818306 11.676979 -14.779133 -4.492447 14.672600 7.264030 -0.274850 2.000000 -2.000000 0.000000 -88.763901 0.507548 -163.516998 100.206001 -0.188895 0.153972 0.045593 -0.017522 -143.190994 -2.000000 2.000000 0.000000 -95.136101 -172.791000 4.913280 -106.621002 0.178534 0.111891 -0.054484 0.004516 -135.046997 -12.777697 -3.011184 -2.857659 31.587101 2.594674 2.375657 -19.433100 8.212870 3.880041 -18.518377 -1.189021 7.571729 40.340622 -2.337933 -2.911870 -22.892868 1.934076 0.732389 
0.058456 43.811989 0.410515 5.896380 2.923930 -5.371890 -20.544399 1.233490 -2.078520 19.663300 5.868430 -0.813526 11.681439 -14.787886 -4.481511 14.682100 7.254180 -0.265641 2.000000 -2.000000 0.000000 -88.705299 0.468508 -163.507004 100.206001 -0.188895 0.153972 0.045617 -0.017740 -143.268997 -2.000000 2.000000 0.000000 -95.077599 -172.839996 4.923170 -106.601997 0.178576 0.111903 -0.054484 0.004516 -135.046997 -12.843652 -2.964928 -2.921390 31.715321 2.592822 2.392437 -19.479563 8.235907 3.876006 -18.507084 -1.147877 7.529245 40.300800 -2.344674 -2.905529 -22.905567 1.896105 0.719943 
